<?xml version="1.0" encoding="utf-8"?><!DOCTYPE svg PUBLIC "-//W3C//DTD SVG 1.1//EN" "http://www.w3.org/Graphics/SVG/1.1/DTD/svg11.dtd"><svg width="376" height="288" viewBox="0 0 376 288" xmlns="http://www.w3.org/2000/svg" xmlns:xlink="http://www.w3.org/1999/xlink"><svg id="AP-Negative" viewBox="0 0 184 64" width="184" height="64" y="128"><style>.aast0{fill:#fff}.aast1{fill:#dc1928}.st2{fill:#003359}.st3{fill:#009fda}.st4{fill:#0077b5}.st5{fill:#e52d27}.st6,.st7{clip-path:url(#SVGID_2_);fill:#db4e3f}.st7{clip-path:url(#SVGID_4_)}</style><path class="aast0" d="M87.6 36.5c3.2 0 4.7-.2 4.7-2.7 0-2.6-1.5-2.9-4.7-2.9H75.8v-7h11.5c4.3 0 7.4.3 9.7 1.9 2.6 1.7 3.8 4.3 3.8 7.8 0 6.2-3.7 9.6-10.7 9.6h-5.3v8.5h-8.9V36.4h11.7zM116.2 23.3c8.9 0 14.4 5.6 14.4 14.7s-5.5 14.7-14.4 14.7-14.5-5.6-14.5-14.7 5.6-14.7 14.5-14.7zm0 22.3c3.8 0 5.4-2.4 5.4-7.7 0-5.2-1.6-7.7-5.4-7.7-3.8 0-5.5 2.4-5.5 7.7 0 5.3 1.7 7.7 5.5 7.7zM141 42.6c.2 2.4 1.7 3.4 4.2 3.4 2.2 0 3.4-.8 3.4-2 0-1.7-1.6-1.9-4.9-2.7-3.9-1-6.4-1.9-7.5-2.7-2.2-1.5-3.2-3.7-3.2-6.4 0-5.4 4.3-8.9 11.7-8.9 7.2 0 11.7 3.2 12 9.3h-8.5c0-2.2-1.5-3-3.6-3-1.9 0-2.8.6-2.8 1.9 0 1.5 1.4 1.7 4.1 2.4 3.4.9 6.2 1.4 8 2.6 2.4 1.6 3.6 3.6 3.6 6.5 0 6-4.3 9.6-12.5 9.6-7.5 0-12.1-3.5-12.4-10h8.4zM165.3 31.3h-8V24h24.8v7.3h-7.9v20.5h-8.9V31.3zM77.4 18.1l-.5 1.9h-1.3l2.5-7.9h1.3l2.4 7.9h-1.3l-.5-1.9h-2.6m1.3-4.4l-1 3.4h2l-1-3.4zM83.3 12.1v5c0 .9 0 1.5.5 2.1.4.6 1.1.9 2 .9.8 0 1.4-.2 1.8-.6.5-.5.7-1.3.7-2.5v-4.9h-1.1V17.2c0 .6 0 1-.2 1.3-.2.4-.6.6-1.1.6-.5 0-.9-.2-1.1-.6-.2-.3-.2-.7-.2-1.3V12.1h-1.3zM90.1 17.7v.2c0 .7.2 1.2.6 1.6.4.4 1 .6 1.8.6s1.4-.2 1.9-.6c.4-.4.6-.9.6-1.6 0-1-.6-1.4-1.5-2.1l-.4-.3c-1-.6-1.5-1-1.5-1.7 0-.2.1-.5.3-.7.2-.2.5-.3.9-.3.3 0 .6.1.8.3.2.2.3.5.3.9V14.3H95.2V14c0-.7-.2-1.2-.5-1.5-.4-.4-1-.6-1.7-.6-1.4 0-2.4.8-2.4 2.1 0 1.1.6 1.6 1.8 2.3l.3.2c.9.5 1.4.9 1.4 1.5s-.5 1.1-1.2 1.1c-.3 0-.6-.1-.8-.2-.2-.2-.3-.6-.3-1.1v-.2h-.1l-1.6.1zM98.7 13.1V20h-1.2v-6.9h-1.9v-1h4.9v1h-1.8M105.4 15.9c.8.2.9.8.9 1.6v.8c0 .6.1 1.1.2 1.6v.1H105.2v-.1c-.2-.5-.2-1.1-.2-1.7v-.7c0-.8-.2-1.1-.8-1.1h-1.1V20H102V12.1h2.1c.9 0 1.6.2 2 .6.3.3.5.8.5 1.4-.1.9-.5 1.5-1.2 1.8m-.3-2.6c-.2-.2-.5-.3-.9-.3h-1.1v2.4h.7c1.1 0 1.5-.4 1.5-1.3 0-.3-.1-.6-.2-.8zM112.4 18.1h-2.6l-.5 1.9H108l2.5-7.9h1.3l2.4 7.9h-1.3l-.5-1.9m-1.3-4.4l-1 3.4h2l-1-3.4zM116.9 18.9v-6.8h-1.2V20h3.8v-1.1h-2.6M120.8 20h1.1V12.1H120.7v.1l.1 7.8zM127.9 18.1h-2.6l-.5 1.9h-1.3l2.5-7.9h1.3l2.4 7.9h-1.3l-.5-1.9m-1.3-4.4l-1 3.4h2l-1-3.4z"/><path class="aast1" d="M64 61.4c0 1.4-1.1 2.6-2.6 2.6H2.6C1.1 64 0 62.9 0 61.4V2.6C0 1.1 1.1 0 2.6 0h58.9C62.9 0 64 1.1 64 2.6v58.8z"/><path class="aast0" d="M11.2 32c0 8.9 5.6 16.5 13.4 19.5v-39c-7.8 3-13.4 10.6-13.4 19.5M32 11.2c-.6 0-1.1 0-1.7.1v1.5h.1c7.9.1 14.3 6.1 14.3 13.5-.1 7.4-6.5 13.3-14.4 13.3v13.2c.6 0 1.1.1 1.7.1 11.5 0 20.8-9.3 20.8-20.8 0-11.6-9.3-20.9-20.8-20.9"/></svg><svg width="32" height="32" viewBox="0 0 32 32" id="Add" x="312" y="224"><path d="M21 14.5h-3.5V11c0-.85-.65-1.5-1.5-1.5s-1.5.65-1.5 1.5v3.5H11c-.85 0-1.5.65-1.5 1.5s.65 1.5 1.5 1.5h3.5V21c0 .85.65 1.5 1.5 1.5s1.5-.65 1.5-1.5v-3.5H21c.85 0 1.5-.65 1.5-1.5s-.65-1.5-1.5-1.5z"/></svg><svg width="32" height="32" viewBox="0 0 32 32" id="CheckboxTick" x="256" y="256"><path d="M25.95 9.65l-1.4-1.4c-.4-.4-1.05-.4-1.4 0L12.5 18.85l-3.65-3.5c-.4-.4-1.05-.4-1.4 0l-1.4 1.4c-.4.4-.4 1.05 0 1.4l5.8 5.55c.4.4 1.05.4 1.4 0L25.95 11c.4-.35.4-1 0-1.35z"/></svg><svg width="32" height="32" viewBox="0 0 32 32" id="Chevron" x="224" y="256"><path d="M20 15.05l-6.05-6.1c-.55-.55-1.4-.55-1.95 0s-.55 1.4 0 1.95l5.1 5.1-5.1 5.1c-.55.55-.55 1.4 0 1.95.25.25.6.4.95.4s.7-.15.95-.4l6.1-6.1c.25-.25.4-.6.4-.95s-.1-.7-.4-.95z"/></svg><svg width="32" height="32" viewBox="0 0 32 32" id="Chevron-Down" x="192" y="256"><path d="M16.95 20l6.1-6.05c.55-.55.55-1.4 0-1.95s-1.4-.55-1.95 0L16 17.1 10.9 12c-.55-.55-1.4-.55-1.95 0-.25.25-.4.6-.4.95s.15.7.4.95l6.1 6.1c.25.25.6.4.95.4s.7-.1.95-.4z"/></svg><svg width="32" height="32" viewBox="0 0 32 32" id="Close" x="128" y="256"><path d="M17.95 16l3.55-3.55c.55-.55.55-1.4 0-1.95s-1.4-.55-1.95 0L16 14.05l-3.55-3.55c-.55-.55-1.4-.55-1.95 0s-.55 1.4 0 1.95L14.05 16l-3.55 3.55c-.55.55-.55 1.4 0 1.95.25.25.6.4.95.4s.7-.15.95-.4l3.55-3.55 3.55 3.55c.25.25.6.4.95.4s.7-.15.95-.4c.55-.55.55-1.4 0-1.95L17.95 16z"/></svg><svg width="32" height="32" viewBox="0 0 32 32" id="Close-Menu" x="96" y="256"><path d="M18.85 16l4.95-4.95c.4-.4.4-1.05 0-1.4l-1.4-1.4c-.4-.4-1.05-.4-1.4 0l-5 4.9-4.95-4.95c-.4-.4-1.05-.4-1.4 0l-1.4 1.4c-.4.4-.4 1.05 0 1.4l4.95 4.95-4.95 4.95c-.4.4-.4 1.05 0 1.4l1.4 1.4c.4.4 1.05.4 1.4 0L16 18.75l4.95 4.95c.4.4 1.05.4 1.4 0l1.4-1.4c.4-.4.4-1.05 0-1.4l-4.9-4.9z"/></svg><svg id="ExternalWebsite" viewBox="0 0 64 64" width="64" height="64" x="128" y="192"><style>.st0{fill-rule:evenodd;clip-rule:evenodd}</style><path d="M46.9 14.3H36.5c-1.3 0-2.4 1.1-2.4 2.4 0 1.3 1.1 2.4 2.4 2.4h4.9L30.3 30.3c-.9.9-.9 2.5 0 3.4.5.5 1.1.7 1.7.7.6 0 1.2-.2 1.7-.7l11.1-11.1v4.9c0 1.3 1.1 2.4 2.4 2.4 1.3 0 2.4-1.1 2.4-2.4V17.1c.1-1.5-1.2-2.8-2.7-2.8z"/><path d="M47.2 34c-1.3 0-2.4 1.1-2.4 2.4v8.4H19.2V19.2h8.4c1.3 0 2.4-1.1 2.4-2.4 0-1.3-1.1-2.4-2.4-2.4H17.1c-1.5 0-2.7 1.2-2.7 2.7V47c0 1.5 1.2 2.7 2.7 2.7H47c1.5 0 2.7-1.2 2.7-2.7V36.5c0-1.4-1.1-2.5-2.5-2.5z"/></svg><svg id="GooglePlus" viewBox="0 0 64 64" width="64" height="64" x="192" y="192"><style>.aist0{fill:#fff}.st1{fill:#dc1928}.st2{fill:#003359}.st3{fill:#009fda}.st4{fill:#0077b5}.st5{fill:#e52d27}.aist6,.aist7{clip-path:url(#SVGID_2_);fill:#db4e3f}.aist7{clip-path:url(#SVGID_4_)}</style><path class="aist0" d="M64 61.4c0 1.4-1.1 2.6-2.6 2.6H2.6C1.1 64 0 62.9 0 61.4V2.6C0 1.1 1.1 0 2.6 0h58.9C62.9 0 64 1.1 64 2.6v58.8z"/><path class="aist6" id="aiSVGID_1_" d="M24.4 30.1v4.6H32c-.3 2-2.3 5.8-7.6 5.8-4.6 0-8.3-3.8-8.3-8.4 0-4.7 3.7-8.4 8.3-8.4 2.6 0 4.3 1.1 5.3 2.1l3.6-3.5c-2.3-2.2-5.3-3.5-9-3.5C17 18.6 11 24.6 11 32c0 7.4 6 13.4 13.4 13.4 7.7 0 12.8-5.4 12.8-13.1 0-.9-.1-1.5-.2-2.2H24.4zm0 0"/><path class="aist7" id="aiSVGID_3_" d="M53 30.1h-3.8v-3.8h-3.8v3.8h-3.9v3.8h3.9v3.8h3.8v-3.8H53"/></svg><svg width="32" height="32" viewBox="0 0 32 32" id="Hamburger-Menu" x="312" y="192"><path d="M25 12H7c-.55 0-1-.45-1-1V9c0-.55.45-1 1-1h18c.55 0 1 .45 1 1v2c0 .55-.45 1-1 1zm0 6H7c-.55 0-1-.45-1-1v-2c0-.55.45-1 1-1h18c.55 0 1 .45 1 1v2c0 .55-.45 1-1 1zm0 6H7c-.55 0-1-.45-1-1v-2c0-.55.45-1 1-1h18c.55 0 1 .45 1 1v2c0 .55-.45 1-1 1z"/></svg><svg id="LinkedIn" viewBox="0 0 64 64" width="64" height="64" x="312" y="64"><style>.akst0{fill:#fff}.st1{fill:#dc1928}.st2{fill:#003359}.st3{fill:#009fda}.akst4{fill:#0077b5}.st5{fill:#e52d27}.st6,.st7{clip-path:url(#SVGID_2_);fill:#db4e3f}.st7{clip-path:url(#SVGID_4_)}</style><path class="akst4" d="M64 61.4c0 1.4-1.1 2.6-2.6 2.6H2.6C1.1 64 0 62.9 0 61.4V2.6C0 1.1 1.1 0 2.6 0h58.9C62.9 0 64 1.1 64 2.6v58.8z"/><path class="akst0" d="M14.4 49.4h7.7V25.9h-7.7v23.5zm26.7-24c-4.1 0-5.9 2.3-7 3.9V26h-7.7c.1 2.2 0 23.5 0 23.5h7.7V36.3c0-.7 0-1.4.3-1.9.6-1.4 1.8-2.9 4-2.9 2.8 0 3.9 2.2 3.9 5.3v12.6H50V35.9c0-7.2-3.8-10.5-8.9-10.5zM18.3 14.6c-2.6 0-4.4 1.8-4.4 4.1s1.7 4.1 4.3 4.1h.1c2.7 0 4.4-1.8 4.4-4.1-.1-2.4-1.7-4.1-4.4-4.1z"/></svg><svg width="32" height="32" viewBox="0 0 32 32" id="Play-Large" x="256" y="192"><path d="M16 0C7.15 0 0 7.15 0 16s7.15 16 16 16 16-7.15 16-16S24.85 0 16 0zm0 31C7.75 31 1 24.25 1 16S7.75 1 16 1s15 6.75 15 15-6.75 15-15 15zm-2.15-19.8c-.1-.05-.2-.05-.25 0-.1.05-.15.15-.15.2l-.1 9.2c0 .1.05.2.15.2.05 0 .1.05.1.05.05 0 .1 0 .15-.05l6.75-4.65c.05-.05.1-.1.1-.2s-.05-.15-.1-.2l-6.65-4.55zm.55 7.95l.05-6.35 4.6 3.15-4.65 3.2z"/></svg><svg width="32" height="32" viewBox="0 0 32 32" id="Play-Small" x="344" y="192"><path d="M16 6C10.5 6 6 10.5 6 16s4.5 10 10 10 10-4.5 10-10S21.5 6 16 6zm0 17.5c-4.15 0-7.5-3.35-7.5-7.5s3.35-7.5 7.5-7.5 7.5 3.35 7.5 7.5-3.35 7.5-7.5 7.5zm-1.1-10.85c-.05-.05-.15-.05-.2-.05s-.1 0-.15.05-.2.2-.2.35l-.05 6.1c0 .15.1.25.2.35.05.05.1.05.2.05.05 0 .15 0 .2-.05l4.45-3.1c.1-.05.15-.2.15-.3s-.05-.25-.15-.3l-4.45-3.1z"/></svg><svg width="32" height="32" viewBox="0 0 32 32" id="Search" x="64" y="256"><path d="M25.15 24.05l-2.9-2.9c1.05-1.45 1.65-3.25 1.65-5.2 0-4.95-4.05-9-9-9s-9 4.05-9 9 4.05 9 9 9c1.95 0 3.75-.6 5.2-1.65l2.9 2.9c.3.3.7.45 1.05.45s.75-.15 1.05-.45c.65-.65.65-1.6.05-2.15zM8.9 15.9c0-3.3 2.7-6 6-6s6 2.7 6 6-2.7 6-6 6-6-2.7-6-6z"/></svg><svg width="32" height="32" viewBox="0 0 32 32" id="Track" x="288" y="256"><path d="M27.2 14.9h-2.15a9.13 9.13 0 0 0-7.95-7.95V4.8c0-.6-.5-1.1-1.1-1.1s-1.1.5-1.1 1.1v2.15a9.13 9.13 0 0 0-7.95 7.95H4.8c-.6 0-1.1.5-1.1 1.1s.5 1.1 1.1 1.1h2.15a9.13 9.13 0 0 0 7.95 7.95v2.15c0 .6.5 1.1 1.1 1.1s1.1-.5 1.1-1.1v-2.15a9.13 9.13 0 0 0 7.95-7.95h2.15c.6 0 1.1-.5 1.1-1.1s-.45-1.1-1.1-1.1zm-10.1 7.65V20.6c0-.6-.5-1.1-1.1-1.1s-1.1.5-1.1 1.1v1.95c-2.8-.45-4.95-2.65-5.45-5.45h1.95c.6 0 1.1-.5 1.1-1.1s-.5-1.1-1.1-1.1H9.45c.45-2.8 2.65-4.95 5.45-5.45v1.95c0 .6.5 1.1 1.1 1.1s1.1-.5 1.1-1.1V9.45c2.8.45 4.95 2.65 5.45 5.45H20.6c-.6 0-1.1.5-1.1 1.1s.5 1.1 1.1 1.1h1.95c-.45 2.8-2.65 5-5.45 5.45z"/></svg><svg width="32" height="32" viewBox="0 0 32 32" id="TransitTime" x="344" y="224"><path d="M16 6C10.5 6 6 10.5 6 16s4.5 10 10 10 10-4.5 10-10S21.5 6 16 6zm0 17.5c-4.15 0-7.5-3.35-7.5-7.5s3.35-7.5 7.5-7.5 7.5 3.35 7.5 7.5-3.35 7.5-7.5 7.5zm3.85-6.05l-2.75-2V11.2c0-.6-.5-1.1-1.1-1.1s-1.1.5-1.1 1.1V16.15c0 .05 0 .05.05.1 0 .05 0 .05.05.1 0 .05.05.05.05.1s.05.05.05.1.05.05.05.1.05.05.05.1.05.05.1.1l.05.05 3.2 2.35c.2.15.45.2.65.2.35 0 .7-.15.9-.45.35-.5.25-1.2-.25-1.55z"/></svg><svg id="Youtube" viewBox="0 0 64 64" width="64" height="64" x="312" y="128"><style>.aqst0{fill:#fff}.st1{fill:#dc1928}.st2{fill:#003359}.st3{fill:#009fda}.st4{fill:#0077b5}.aqst5{fill:#e52d27}.st6,.st7{clip-path:url(#SVGID_2_);fill:#db4e3f}.st7{clip-path:url(#SVGID_4_)}</style><path class="aqst5" d="M64 61.4c0 1.4-1.1 2.6-2.6 2.6H2.6C1.1 64 0 62.9 0 61.4V2.6C0 1.1 1.1 0 2.6 0h58.9C62.9 0 64 1.1 64 2.6v58.8z"/><path class="aqst0" d="M46.6 18.1H17.4s-5.4-.3-5.4 8.2v11.5c0 8.4 5.4 8.2 5.4 8.2h29.2s5.4.3 5.4-8.2V26.2c0-8.4-5.4-8.1-5.4-8.1zM28.2 39.4V25l11.2 7.2-11.2 7.2z"/></svg><svg width="32" height="32" viewBox="0 0 32 32" id="article-history" x="256" y="224"><path d="M10.8 7.7l-3.05-.05c-.35 0-.6.25-.6.5v3.15c0 .3.25.5.6.5l3.05.05c.3 0 .55-.25.55-.5V8.2c0-.3-.25-.5-.55-.5zm-.6 3.15l-1.9-.05V8.7l1.9.05v2.1zm-2.45 7.2l3 .05c.3 0 .55-.2.55-.45V14.5c0-.3-.25-.5-.55-.5l-3-.05c-.3 0-.6.25-.6.5v3.15c0 .25.25.45.6.45zm.55-3.1l1.9.05v2.25l-1.9-.05v-2.25zm2.5 5.2l-3.05-.05c-.35 0-.6.25-.6.5v3.15c0 .3.25.5.6.5l3.05.05c.3 0 .55-.25.55-.5v-3.15c0-.25-.25-.5-.55-.5zm13.35 1.05h-10c-.4 0-.75.45-.75 1.05s.35 1.05.75 1.05h10c.4 0 .75-.45.75-1.05-.05-.55-.35-1.05-.75-1.05zm0-6.25h-10c-.4 0-.75.45-.75 1.05s.35 1.05.75 1.05h10c.4 0 .75-.45.75-1.05-.05-.55-.35-1.05-.75-1.05zM14.1 10.8h10c.4 0 .75-.45.75-1.05S24.5 8.7 24.1 8.7h-10c-.4 0-.75.45-.75 1.05.05.6.35 1.05.75 1.05z"/></svg><svg width="32" height="32" viewBox="0 0 32 32" id="datepicker" y="256"><path d="M23.25 26.45H8.75c-1.5 0-2.75-1.2-2.75-2.75V10.1c0-1.5 1.2-2.75 2.75-2.75h1.8V8.7c0 .75.6 1.35 1.35 1.35h.9c.75 0 1.35-.6 1.35-1.35V7.35h3.65V8.7c0 .75.6 1.35 1.35 1.35h.9c.75 0 1.35-.6 1.35-1.35V7.35h1.8c1.5 0 2.75 1.2 2.75 2.75v13.65c.05 1.5-1.15 2.7-2.7 2.7zm.95-14.55H7.8v12.75h16.35V11.9zm-12.75 3.65h-1.8v-1.8h1.8v1.8zm0 3.65h-1.8v-1.8h1.8v1.8zm0 3.6h-1.8V21h1.8v1.8zm3.65-7.25h-1.8v-1.8h1.8v1.8zm0 3.65h-1.8v-1.8h1.8v1.8zm0 3.6h-1.8V21h1.8v1.8zm3.65-7.25h-1.8v-1.8h1.8v1.8zm0 3.65h-1.8v-1.8h1.8v1.8zm0 3.6h-1.8V21h1.8v1.8zm3.6-7.25h-1.8v-1.8h1.8v1.8zm0 3.65h-1.8v-1.8h1.8v1.8zm0 3.6h-1.8V21h1.8v1.8zm-2.7-13.6c-.5 0-.9-.4-.9-.9V6.5c0-.5.4-.9.9-.9s.9.4.9.9v1.8c0 .45-.4.9-.9.9zm-7.3 0c-.5 0-.9-.4-.9-.9V6.5c0-.5.4-.9.9-.9s.9.4.9.9v1.8c0 .45-.4.9-.9.9z"/></svg><svg width="32" height="32" viewBox="0 0 32 32" id="edit" x="32" y="256"><path d="M20.6 14.35l-.8.8-2.95-2.95.85-.8c.2-.2.45-.3.7-.3.6 0 1.2.55 1.6.95s.65.7.8 1c.3.65 0 1.1-.2 1.3zm-1.75 1.75L15 19.9a.38.38 0 0 1-.2.1l-3.25.85h-.1c-.1 0-.2-.05-.25-.1-.1-.1-.15-.25-.1-.4l.85-3.25c0-.05.05-.15.1-.2l.05-.05 3.85-3.8 2.9 3.05z"/></svg><svg id="facebook" viewBox="0 0 64 64" width="64" height="64" x="312"><style>.st0{fill:#fff}.st1{fill:#dc1928}.st2{fill:#003359}.st3{fill:#009fda}.st4{fill:#0077b5}.st5{fill:#e52d27}.aust6{fill:#3b5998}.st7{fill:#00aced}.st8{fill:#cb2027}.st10,.st9{clip-path:url(#SVGID_2_);fill:#db4e3f}.st10{clip-path:url(#SVGID_4_)}.aust11{fill-rule:evenodd;clip-rule:evenodd;fill:#fff}</style><path class="aust6" d="M64 61.4c0 1.4-1.1 2.6-2.6 2.6H2.6C1.1 64 0 62.9 0 61.4V2.6C0 1.1 1.1 0 2.6 0h58.9C62.9 0 64 1.1 64 2.6v58.8z"/><path class="aust11" d="M40.4 26.3L40 32h-5.9v17.1c-2.2.8-4.5 1.2-6.9 1.2h-.5V32h-3.9v-5.7h3.9v-3.9c0-1.7 0-4.3 1.3-5.9 1.3-1.7 3.1-2.9 6.1-2.9 4.5 0 6.6.6 7 .7l.1.1-1 5.8s-1.6-.5-3.2-.5c-1.5 0-2.9.5-2.9 2.1v4.4h6.3z"/></svg><svg id="instagram" viewBox="0 0 64 64" width="64" height="64" x="64" y="192"><style>.avst0{fill:#fff}.st1{fill:#dc1928}.st2{fill:#003359}.st3{fill:#009fda}.st4{fill:#0077b5}.st5{fill:#e52d27}.st6{fill:#3b5998}.st7{fill:#00aced}.st8{fill:#cb2027}.st10,.st9{clip-path:url(#SVGID_2_);fill:#db4e3f}.st10{clip-path:url(#SVGID_4_)}.st11{fill-rule:evenodd;clip-rule:evenodd;fill:#fff}</style><path d="M64 61.4c0 1.4-1.1 2.6-2.6 2.6H2.6C1.1 64 0 62.9 0 61.4V2.6C0 1.1 1.1 0 2.6 0h58.9C62.9 0 64 1.1 64 2.6v58.8z"/><path class="avst0" d="M32 16.4c5.1 0 5.7 0 7.7.1 1.9.1 2.9.4 3.5.7.9.3 1.5.8 2.2 1.4.7.7 1.1 1.3 1.4 2.2.3.7.6 1.7.7 3.5.1 2 .1 2.6.1 7.7s0 5.7-.1 7.7c-.1 1.9-.4 2.9-.7 3.5-.3.9-.8 1.5-1.4 2.2-.7.7-1.3 1.1-2.2 1.4-.7.3-1.7.6-3.5.7-2 .1-2.6.1-7.7.1s-5.7 0-7.7-.1c-1.9-.1-2.9-.4-3.5-.7-.9-.3-1.5-.8-2.2-1.4-.7-.7-1.1-1.3-1.4-2.2-.3-.7-.6-1.7-.7-3.5-.1-2-.1-2.6-.1-7.7s0-5.7.1-7.7c.1-1.9.4-2.9.7-3.5.3-.9.8-1.5 1.4-2.2.7-.7 1.3-1.1 2.2-1.4.7-.3 1.7-.6 3.5-.7 2-.1 2.6-.1 7.7-.1m0-3.4c-5.2 0-5.8 0-7.8.1s-3.4.4-4.6.9c-1.2.5-2.3 1.1-3.4 2.2s-1.7 2.1-2.2 3.4c-.5 1.2-.8 2.6-.9 4.6-.1 2-.1 2.6-.1 7.8 0 5.2 0 5.8.1 7.8s.4 3.4.9 4.6c.5 1.2 1.1 2.3 2.2 3.4s2.1 1.7 3.4 2.2c1.2.5 2.6.8 4.6.9 2 .1 2.7.1 7.8.1s5.8 0 7.8-.1 3.4-.4 4.6-.9c1.2-.5 2.3-1.1 3.4-2.2s1.7-2.1 2.2-3.4c.5-1.2.8-2.6.9-4.6.1-2 .1-2.7.1-7.8s0-5.8-.1-7.8-.4-3.4-.9-4.6c-.5-1.2-1.1-2.3-2.2-3.4s-2.1-1.7-3.4-2.2c-1.2-.5-2.6-.8-4.6-.9-2-.1-2.6-.1-7.8-.1z"/><path class="avst0" d="M32 22.2c-5.4 0-9.8 4.4-9.8 9.8s4.4 9.8 9.8 9.8 9.8-4.4 9.8-9.8-4.4-9.8-9.8-9.8zm0 16.1c-3.5 0-6.3-2.8-6.3-6.3s2.8-6.3 6.3-6.3 6.3 2.8 6.3 6.3-2.8 6.3-6.3 6.3z"/><circle class="avst0" cx="42.1" cy="21.9" r="2.3"/></svg><svg id="pinterest" viewBox="0 0 64 64" width="64" height="64" y="192"><style>.awst0{fill:#fff}.st1{fill:#dc1928}.st2{fill:#003359}.st3{fill:#009fda}.st4{fill:#0077b5}.st5{fill:#e52d27}.st6{fill:#3b5998}.st7{fill:#00aced}.awst8{fill:#cb2027}.st10,.st9{clip-path:url(#SVGID_2_);fill:#db4e3f}.st10{clip-path:url(#SVGID_4_)}.st11{fill-rule:evenodd;clip-rule:evenodd;fill:#fff}</style><path class="awst8" d="M64 61.4c0 1.4-1.1 2.6-2.6 2.6H2.6C1.1 64 0 62.9 0 61.4V2.6C0 1.1 1.1 0 2.6 0h58.9C62.9 0 64 1.1 64 2.6v58.8z"/><path class="awst0" d="M34.8 40.2c-2.3 0-4.4-1.2-5.2-2.6 0 0-1.2 4.9-1.5 5.8-.9 3.3-3.6 6.7-3.8 6.9-.1.2-.5.1-.5-.1-.1-.4-.7-4.6.1-8l2.7-11.5s-.6-1.4-.6-3.4c0-3.1 1.8-5.5 4.1-5.5 1.9 0 2.9 1.4 2.9 3.2 0 1.9-1.2 4.8-1.9 7.5-.5 2.2 1.1 4.1 3.3 4.1 4 0 6.7-5.2 6.7-11.3 0-4.6-3.1-8.1-8.8-8.1-6.4 0-10.4 4.8-10.4 10.2 0 1.8.5 3.1 1.4 4.2.4.5.4.6.3 1.2-.1.4-.3 1.3-.4 1.7-.1.5-.6.7-1.1.5-3-1.2-4.3-4.5-4.3-8.1 0-6 5.1-13.2 15.1-13.2 8.1 0 13.4 5.9 13.4 12.1 0 8.2-4.6 14.4-11.5 14.4z"/></svg><svg width="32" height="32" viewBox="0 0 32 32" id="restart" x="160" y="256"><path d="M23.9 16.95c0 4.4-3.55 7.9-7.9 7.9s-7.9-3.55-7.9-7.9c0-.75.1-1.45.3-2.15l2.65 1c-.1.35-.15.75-.15 1.15 0 2.85 2.3 5.15 5.15 5.15s5.15-2.3 5.15-5.15c0-2.65-2.05-4.85-4.65-5.1v2.1l-6.5-3.05 6.5-3.75v1.9c4.05.25 7.35 3.65 7.35 7.9z"/></svg><svg id="startrack-logo" viewBox="0 0 312 64" width="312" height="64" y="64"><style>.ayst0{fill:#fff}.st1{fill:#dc1928}.ayst2{fill:#003359}.ayst3{fill:#009fda}.st4{fill:#0077b5}.st5{fill:#e52d27}.st6,.st7{clip-path:url(#SVGID_2_);fill:#db4e3f}.st7{clip-path:url(#SVGID_4_)}</style><path class="ayst2" d="M64 61.4c0 1.4-1.1 2.6-2.6 2.6H2.6C1.1 64 0 62.9 0 61.4V2.6C0 1.1 1.1 0 2.6 0h58.9C62.9 0 64 1.1 64 2.6v58.8z"/><path class="ayst0" d="M11.2 32c0 8.9 5.6 16.5 13.4 19.5v-39c-7.8 3-13.4 10.6-13.4 19.5M32 11.2c-.6 0-1.1 0-1.7.1v1.5h.1c7.9.1 14.3 6.1 14.3 13.5-.1 7.4-6.5 13.3-14.4 13.3v13.2c.6 0 1.1.1 1.7.1 11.5 0 20.8-9.3 20.8-20.8 0-11.6-9.3-20.9-20.8-20.9"/><g><path class="ayst3" d="M224.1 31.4zM224.1 31.5zM229.6 32.5h-.1.1zM220.8 45.1l-4-8.6c2.9-.8 5-2.1 6.3-3.8 1.8.5 3.5 1 5.1 1.6l-7.4 10.8zM247.1 18h-7.5L232 29c2.3.5 4.6 1.1 6.7 1.6l2.4-3.6 1 8.6c-1.8-.5-3.6-1-5.5-1.5-.2 0-.3-.1-.5-.1-.2-.1-.5-.1-.7-.2-.4-.1-.9-.2-1.3-.3-1.5-.3-3-.7-4.5-1h-.1c-1.8-.4-3.5-.7-5.4-1-7.4-1.3-15.4-2.2-23.8-2.6l-4.6 17h7.7l3-10.9c.8.1 1.7.2 2.5.2l4.4 10.7h15.5l6.3-8.9c2.9 1.3 5.5 2.7 7.8 4.2l.6 4.7h8.1L247.1 18zM182.1 28.4l-4.7 17.4h7.7l4.7-17.4h-7.7zM199.1 24.7l1.7-6.5h-24.2l-1.8 6.5c3.8-.2 7.7-.3 11.7-.3 4.3 0 8.5.1 12.6.3z"/><path class="ayst3" d="M225.2 26.7c0-2.2-.7-4.2-2.1-5.7-1.9-1.9-4.9-2.9-9.5-2.9h-10.4l-1.8 6.7c8.4.5 16.5 1.5 23.9 2.8-.1-.3-.1-.6-.1-.9zM270.7 36.6c-1.8 1.8-3.5 2.8-5.9 2.8-3.2 0-5.5-2.2-5.5-5.7 0-4.8 3.7-9.1 8.3-9.1 2.7 0 4.5 1.3 5.6 3.6l6.6-3.6c-1.7-4.3-5.6-7-11.2-7-10.6 0-17.3 8.5-17.3 16.7v.4c0 1.6.3 3.1.9 4.4 1.8 4.6 6.4 7.3 12.2 7.3h.9c1.3-.1 2.6-.3 3.7-.6 2.9-.8 5.2-2.5 7-4.6l-5.3-4.6zM308.3 18.1h-8.9l-12.1 13.5 3.6-13.5h-7.7l-7.4 27.8h7.7l3.8-14.3 7 14.3h8.3l-7-14.3 12.7-13.5z"/></g><g><path class="ayst2" d="M171.7 21.1c-1.9-1.9-4.9-2.9-9.5-2.9h-10.4l-2.5 9.2c7.6-1.3 15.8-2.2 24.4-2.6-.4-1.5-1-2.7-2-3.7z"/><path class="ayst2" d="M173.6 28.8c-7.6.4-14.8 1.2-21.6 2.2-.2 0-.3 0-.5.1-.5.1-1 .2-1.4.2-.3 0-.5.1-.8.1-.4.1-.8.1-1.2.2h-.2c-.2 0-.5.1-.7.1-.6.1-1.2.2-1.9.3-.1 0-.2 0-.3.1-.6.1-1.2.2-1.8.4-.2 0-.5.1-.7.1l-1.2.3h-.1c-.2.1-.5.1-.7.2-.4.1-.9.2-1.3.3-.2.1-.4.1-.6.1-.6.1-1.2.3-1.8.4-.1 0-.3.1-.4.1-.5.1-1 .3-1.4.4-.2.1-.4.1-.7.2-.1 0-.2.1-.3.1-.2.1-.4.1-.6.2-.1 0-.2 0-.3.1-.2.1-.4.1-.7.2-.4.1-.8.2-1.3.4-.2 0-.3.1-.5.1-.6.2-1.1.3-1.7.5-.2.1-.3.1-.5.2-.4.1-.8.3-1.2.4-.2.1-.4.1-.6.2-.1 0-.2.1-.2.1L133 27l.5 3.9c2.3-.6 4.8-1.3 7.3-1.8L138.9 18h-7.5l-19.3 27.9h8.3c3.5-3 8.2-5.8 13.7-8.1l1 8.1h8.1L141.5 35c2-.6 4-1.2 6.1-1.8l-3.4 12.7h7.7l2.6-9.5c1-.2 2.1-.3 3.1-.4l4.1 9.9h8.1l-4.3-9.3c4.8-1.4 7.4-4.2 8.1-7.8zM122.8 24.9l1.7-6.7h-24.2l-1.8 6.7h8.3l-5.7 21h7.7l5.6-21h8.4zM88.3 24.1c3.1-.4 6.2.3 7.9.8l1.7-6.2c-1.4-.5-4.2-1.1-8.3-1-6.8.1-11.8 3.9-11.8 9.4 0 4.1 2.8 6 7.2 7.6 3.9 1.5 4.6 2.1 4.6 3.1 0 1.3-1.3 2.1-3.1 2.1-.5 0-1 0-1.5-.1h-.1c-.3 0-.6-.1-.9-.2-2.6-.5-5-1.6-7-3l-1.8 6.5c2.8 2.1 6.5 3.2 10.8 3.2 6.9 0 11.8-3.9 11.8-9.6 0-4.2-2.9-6.1-7.2-7.7-3.8-1.5-4.6-1.9-4.6-3-.1-.9.8-1.7 2.3-1.9z"/></g></svg><svg id="startrack-logo_inverted" viewBox="0 0 312 64" width="312" height="64"><style>.azst0{fill:#fff}.st1{fill:#dc1928}.azst2{fill:#003359}.st3{fill:#009fda}.st4{fill:#0077b5}.st5{fill:#e52d27}.st6,.st7{clip-path:url(#SVGID_2_);fill:#db4e3f}.st7{clip-path:url(#SVGID_4_)}</style><path class="azst2" d="M64 61.4c0 1.4-1.1 2.6-2.6 2.6H2.6C1.1 64 0 62.9 0 61.4V2.6C0 1.1 1.1 0 2.6 0h58.9C62.9 0 64 1.1 64 2.6v58.8z"/><path class="azst0" d="M11.2 32c0 8.9 5.6 16.5 13.4 19.5v-39c-7.8 3-13.4 10.6-13.4 19.5M32 11.2c-.6 0-1.1 0-1.7.1v1.5h.1c7.9.1 14.3 6.1 14.3 13.5-.1 7.4-6.5 13.3-14.4 13.3v13.2c.6 0 1.1.1 1.7.1 11.5 0 20.8-9.3 20.8-20.8 0-11.6-9.3-20.9-20.8-20.9"/><g><path class="azst0" d="M224.1 31.4zM224.1 31.5zM229.6 32.5h-.1.1zM220.8 45.1l-4-8.6c2.9-.8 5-2.1 6.3-3.8 1.8.5 3.5 1 5.1 1.6l-7.4 10.8zM247.1 18h-7.5L232 29c2.3.5 4.6 1.1 6.7 1.6l2.4-3.6 1 8.6c-1.8-.5-3.6-1-5.5-1.5-.2 0-.3-.1-.5-.1-.2-.1-.5-.1-.7-.2-.4-.1-.9-.2-1.3-.3-1.5-.3-3-.7-4.5-1h-.1c-1.8-.4-3.5-.7-5.4-1-7.4-1.3-15.4-2.2-23.8-2.6l-4.6 17h7.7l3-10.9c.8.1 1.7.2 2.5.2l4.4 10.7h15.5l6.3-8.9c2.9 1.3 5.5 2.7 7.8 4.2l.6 4.7h8.1L247.1 18zM182.1 28.4l-4.7 17.4h7.7l4.7-17.4h-7.7zM199.1 24.7l1.7-6.5h-24.2l-1.8 6.5c3.8-.2 7.7-.3 11.7-.3 4.3 0 8.5.1 12.6.3z"/><path class="azst0" d="M225.2 26.7c0-2.2-.7-4.2-2.1-5.7-1.9-1.9-4.9-2.9-9.5-2.9h-10.4l-1.8 6.7c8.4.5 16.5 1.5 23.9 2.8-.1-.3-.1-.6-.1-.9zM270.7 36.6c-1.8 1.8-3.5 2.8-5.9 2.8-3.2 0-5.5-2.2-5.5-5.7 0-4.8 3.7-9.1 8.3-9.1 2.7 0 4.5 1.3 5.6 3.6l6.6-3.6c-1.7-4.3-5.6-7-11.2-7-10.6 0-17.3 8.5-17.3 16.7v.4c0 1.6.3 3.1.9 4.4 1.8 4.6 6.4 7.3 12.2 7.3h.9c1.3-.1 2.6-.3 3.7-.6 2.9-.8 5.2-2.5 7-4.6l-5.3-4.6zM308.3 18.1h-8.9l-12.1 13.5 3.6-13.5h-7.7l-7.4 27.8h7.7l3.8-14.3 7 14.3h8.3l-7-14.3 12.7-13.5z"/></g><g><path class="azst2" d="M171.7 21.1c-1.9-1.9-4.9-2.9-9.5-2.9h-10.4l-2.5 9.2c7.6-1.3 15.8-2.2 24.4-2.6-.4-1.5-1-2.7-2-3.7z"/><path class="azst2" d="M173.6 28.8c-7.6.4-14.8 1.2-21.6 2.2-.2 0-.3 0-.5.1-.5.1-1 .2-1.4.2-.3 0-.5.1-.8.1-.4.1-.8.1-1.2.2h-.2c-.2 0-.5.1-.7.1-.6.1-1.2.2-1.9.3-.1 0-.2 0-.3.1-.6.1-1.2.2-1.8.4-.2 0-.5.1-.7.1l-1.2.3h-.1c-.2.1-.5.1-.7.2-.4.1-.9.2-1.3.3-.2.1-.4.1-.6.1-.6.1-1.2.3-1.8.4-.1 0-.3.1-.4.1-.5.1-1 .3-1.4.4-.2.1-.4.1-.7.2-.1 0-.2.1-.3.1-.2.1-.4.1-.6.2-.1 0-.2 0-.3.1-.2.1-.4.1-.7.2-.4.1-.8.2-1.3.4-.2 0-.3.1-.5.1-.6.2-1.1.3-1.7.5-.2.1-.3.1-.5.2-.4.1-.8.3-1.2.4-.2.1-.4.1-.6.2-.1 0-.2.1-.2.1L133 27l.5 3.9c2.3-.6 4.8-1.3 7.3-1.8L138.9 18h-7.5l-19.3 27.9h8.3c3.5-3 8.2-5.8 13.7-8.1l1 8.1h8.1L141.5 35c2-.6 4-1.2 6.1-1.8l-3.4 12.7h7.7l2.6-9.5c1-.2 2.1-.3 3.1-.4l4.1 9.9h8.1l-4.3-9.3c4.8-1.4 7.4-4.2 8.1-7.8zM122.8 24.9l1.7-6.7h-24.2l-1.8 6.7h8.3l-5.7 21h7.7l5.6-21h8.4zM88.3 24.1c3.1-.4 6.2.3 7.9.8l1.7-6.2c-1.4-.5-4.2-1.1-8.3-1-6.8.1-11.8 3.9-11.8 9.4 0 4.1 2.8 6 7.2 7.6 3.9 1.5 4.6 2.1 4.6 3.1 0 1.3-1.3 2.1-3.1 2.1-.5 0-1 0-1.5-.1h-.1c-.3 0-.6-.1-.9-.2-2.6-.5-5-1.6-7-3l-1.8 6.5c2.8 2.1 6.5 3.2 10.8 3.2 6.9 0 11.8-3.9 11.8-9.6 0-4.2-2.9-6.1-7.2-7.7-3.8-1.5-4.6-1.9-4.6-3-.1-.9.8-1.7 2.3-1.9z"/></g></svg><svg id="twitter" viewBox="0 0 64 64" width="64" height="64" x="248" y="128"><style>.bast0{fill:#fff}.st1{fill:#dc1928}.st2{fill:#003359}.st3{fill:#009fda}.st4{fill:#0077b5}.st5{fill:#e52d27}.st6{fill:#3b5998}.st7{fill:#cb2027}.st8,.st9{clip-path:url(#SVGID_2_);fill:#db4e3f}.st9{clip-path:url(#SVGID_4_)}.bast10{fill:#00aced}.st11{fill-rule:evenodd;clip-rule:evenodd;fill:#fff}</style><path class="bast0" d="M64 61.4c0 1.4-1.1 2.6-2.6 2.6H2.6C1.1 64 0 62.9 0 61.4V2.6C0 1.1 1.1 0 2.6 0h58.9C62.9 0 64 1.1 64 2.6v58.8z"/><path class="bast10" d="M48.1 24.2v1c0 10.3-7.9 22.3-22.3 22.3-4.4 0-8.5-1.3-12-3.5.6.1 1.2.1 1.9.1 3.7 0 7-1.3 9.7-3.4-3.4-.1-6.3-2.3-7.3-5.4.5.1 1 .1 1.5.1.7 0 1.4-.1 2.1-.3-3.6-.7-6.3-3.9-6.3-7.7v-.1c1.1.6 2.3.9 3.5 1-2.1-1.4-3.5-3.8-3.5-6.5 0-1.4.4-2.8 1.1-3.9 3.9 4.7 9.6 7.9 16.1 8.2-.1-.6-.2-1.2-.2-1.8 0-4.3 3.5-7.8 7.8-7.8 2.3 0 4.3 1 5.7 2.5 1.8-.3 3.5-1 5-1.9-.6 1.8-1.8 3.4-3.4 4.3 1.6-.2 3.1-.6 4.5-1.2-1.1 1.5-2.4 2.9-3.9 4z"/></svg><svg id="twitterBlue" viewBox="0 0 64 64" width="64" height="64" x="184" y="128"><style>.bbst0{fill:#fff}.st1{fill:#dc1928}.st2{fill:#003359}.st3{fill:#009fda}.st4{fill:#0077b5}.st5{fill:#e52d27}.st6{fill:#3b5998}.bbst7{fill:#4099ff}.st8{fill:#cb2027}.st10,.st9{clip-path:url(#SVGID_2_);fill:#db4e3f}.st10{clip-path:url(#SVGID_4_)}.st11{fill-rule:evenodd;clip-rule:evenodd;fill:#fff}</style><path class="bbst7" d="M64 61.4c0 1.4-1.1 2.6-2.6 2.6H2.6C1.1 64 0 62.9 0 61.4V2.6C0 1.1 1.1 0 2.6 0h58.9C62.9 0 64 1.1 64 2.6v58.8z"/><path class="bbst0" d="M48.1 24.2v1c0 10.3-7.9 22.3-22.3 22.3-4.4 0-8.5-1.3-12-3.5.6.1 1.2.1 1.9.1 3.7 0 7-1.3 9.7-3.4-3.4-.1-6.3-2.3-7.3-5.4.5.1 1 .1 1.5.1.7 0 1.4-.1 2.1-.3-3.6-.7-6.3-3.9-6.3-7.7v-.1c1.1.6 2.3.9 3.5 1-2.1-1.4-3.5-3.8-3.5-6.5 0-1.4.4-2.8 1.1-3.9 3.9 4.7 9.6 7.9 16.1 8.2-.1-.6-.2-1.2-.2-1.8 0-4.3 3.5-7.8 7.8-7.8 2.3 0 4.3 1 5.7 2.5 1.8-.3 3.5-1 5-1.9-.6 1.8-1.8 3.4-3.4 4.3 1.6-.2 3.1-.6 4.5-1.2-1.1 1.5-2.4 2.9-3.9 4z"/></svg></svg>